M48
; DRILL file KiCad 10.0.1 date 2026-04-28T15:22:26
; FORMAT={-:-/ absolute / metric / decimal}
; #@! TF.CreationDate,2026-04-28T15:22:26+02:00
; #@! TF.GenerationSoftware,Kicad,Pcbnew,10.0.1
; #@! TF.FileFunction,Plated,1,2,PTH
FMAT,2
METRIC
; #@! TA.AperFunction,Plated,PTH,ComponentDrill
T1C0.900
; #@! TA.AperFunction,Plated,PTH,ComponentDrill
T2C1.000
%
G90
G05
T1
X37.09Y-51.12
X37.09Y-53.66
X37.1Y-112.08
X37.1Y-114.62
X39.63Y-51.12
X39.63Y-53.66
X39.64Y-112.08
X39.64Y-114.62
X42.17Y-51.12
X42.17Y-53.66
X42.18Y-112.08
X42.18Y-114.62
X44.71Y-51.12
X44.71Y-53.66
X44.72Y-112.08
X44.72Y-114.62
X47.25Y-51.12
X47.25Y-53.66
X47.26Y-112.08
X47.26Y-114.62
X49.79Y-51.12
X49.79Y-53.66
X49.8Y-112.08
X49.8Y-114.62
X52.33Y-51.12
X52.33Y-53.66
X52.34Y-112.08
X52.34Y-114.62
X54.87Y-51.12
X54.87Y-53.66
X54.88Y-112.08
X54.88Y-114.62
X57.41Y-51.12
X57.41Y-53.66
X57.42Y-112.08
X57.42Y-114.62
X59.95Y-51.12
X59.95Y-53.66
X59.96Y-112.08
X59.96Y-114.62
X62.49Y-51.12
X62.49Y-53.66
X62.5Y-112.08
X62.5Y-114.62
X65.03Y-51.12
X65.03Y-53.66
X65.04Y-112.08
X65.04Y-114.62
X67.57Y-51.12
X67.57Y-53.66
X67.58Y-112.08
X67.58Y-114.62
X70.11Y-51.12
X70.11Y-53.66
X70.12Y-112.08
X70.12Y-114.62
X72.65Y-51.12
X72.65Y-53.66
X72.66Y-112.08
X72.66Y-114.62
X75.19Y-51.12
X75.19Y-53.66
X75.2Y-112.08
X75.2Y-114.62
X77.73Y-51.12
X77.73Y-53.66
X77.74Y-112.08
X77.74Y-114.62
X80.27Y-51.12
X80.27Y-53.66
X80.28Y-112.08
X80.28Y-114.62
X82.81Y-51.12
X82.81Y-53.66
X82.82Y-112.08
X82.82Y-114.62
T2
X11.01Y-28.13
X11.01Y-30.67
X11.01Y-33.21
X11.01Y-35.75
X11.01Y-38.29
X11.01Y-40.83
X11.01Y-43.37
X11.01Y-45.91
X11.01Y-48.45
X11.01Y-50.99
X11.01Y-53.53
X11.01Y-56.07
X11.01Y-58.61
X11.01Y-61.15
X11.01Y-63.69
X11.01Y-66.23
X11.01Y-68.77
X11.01Y-71.31
X11.01Y-73.85
X11.01Y-76.39
X11.04Y-89.38
X11.04Y-91.92
X11.04Y-94.46
X11.04Y-97.0
X11.04Y-99.54
X11.04Y-102.08
X11.04Y-104.62
X11.04Y-107.16
X11.04Y-109.7
X11.04Y-112.24
X11.04Y-114.78
X11.04Y-117.32
X11.04Y-119.86
X11.04Y-122.4
X11.04Y-124.94
X11.04Y-127.48
X11.04Y-130.02
X11.04Y-132.56
X11.04Y-135.1
X11.04Y-137.64
X16.09Y-28.13
X16.09Y-30.67
X16.09Y-33.21
X16.09Y-35.75
X16.09Y-38.29
X16.09Y-40.83
X16.09Y-43.37
X16.09Y-45.91
X16.09Y-48.45
X16.09Y-50.99
X16.09Y-53.53
X16.09Y-56.07
X16.09Y-58.61
X16.09Y-61.15
X16.09Y-63.69
X16.09Y-66.23
X16.09Y-68.77
X16.09Y-71.31
X16.09Y-73.85
X16.09Y-76.39
X16.12Y-89.38
X16.12Y-91.92
X16.12Y-94.46
X16.12Y-97.0
X16.12Y-99.54
X16.12Y-102.08
X16.12Y-104.62
X16.12Y-107.16
X16.12Y-109.7
X16.12Y-112.24
X16.12Y-114.78
X16.12Y-117.32
X16.12Y-119.86
X16.12Y-122.4
X16.12Y-124.94
X16.12Y-127.48
X16.12Y-130.02
X16.12Y-132.56
X16.12Y-135.1
X16.12Y-137.64
X30.14Y-11.22
X30.14Y-16.3
X32.5Y-147.53
X32.5Y-152.61
X32.68Y-11.22
X32.68Y-16.3
X35.04Y-147.53
X35.04Y-152.61
X35.22Y-11.22
X35.22Y-16.3
X37.58Y-147.53
X37.58Y-152.61
X37.76Y-11.22
X37.76Y-16.3
X40.12Y-147.53
X40.12Y-152.61
X40.3Y-11.22
X40.3Y-16.3
X42.66Y-147.53
X42.66Y-152.61
X42.84Y-11.22
X42.84Y-16.3
X45.2Y-147.53
X45.2Y-152.61
X45.38Y-11.22
X45.38Y-16.3
X47.74Y-147.53
X47.74Y-152.61
X47.92Y-11.22
X47.92Y-16.3
X50.28Y-147.53
X50.28Y-152.61
X50.46Y-11.22
X50.46Y-16.3
X52.82Y-147.53
X52.82Y-152.61
X53.0Y-11.22
X53.0Y-16.3
X55.36Y-147.53
X55.36Y-152.61
X55.54Y-11.22
X55.54Y-16.3
X57.9Y-147.53
X57.9Y-152.61
X58.08Y-11.22
X58.08Y-16.3
X60.44Y-147.53
X60.44Y-152.61
X60.62Y-11.22
X60.62Y-16.3
X62.98Y-147.53
X62.98Y-152.61
X63.16Y-11.22
X63.16Y-16.3
X65.52Y-147.53
X65.52Y-152.61
X65.7Y-11.22
X65.7Y-16.3
X68.06Y-147.53
X68.06Y-152.61
X68.24Y-11.22
X68.24Y-16.3
X70.6Y-147.53
X70.6Y-152.61
X70.78Y-11.22
X70.78Y-16.3
X73.14Y-147.53
X73.14Y-152.61
X73.32Y-11.22
X73.32Y-16.3
X75.68Y-147.53
X75.68Y-152.61
X75.86Y-11.22
X75.86Y-16.3
X78.22Y-147.53
X78.22Y-152.61
X78.4Y-11.22
X78.4Y-16.3
X80.76Y-147.53
X80.76Y-152.61
M30
